<svg width="500" height="250" viewBox="0 0 500 250" fill="none" xmlns="http://www.w3.org/2000/svg">
  <defs>
    <filter id="cardShadow" x="-50%" y="-50%" width="200%" height="200%">
      <feDropShadow dx="0" dy="2" stdDeviation="3" flood-opacity="0.2"/>
    </filter>
  </defs>
  <defs>
    <linearGradient id="statsGradient" x1="0%" y1="0%" x2="100%" y2="0%">
    <stop offset="0%" stop-color="#58a6ff"/>
    <stop offset="100%" stop-color="#1f6feb"/>
    </linearGradient>
  </defs>
  <rect x="0" y="0" width="500" height="250" rx="10" fill="#0d1117" />
  <text x="20" y="40" font-size="18" font-weight="bold" fill="#c9d1d9" font-family="-apple-system, BlinkMacSystemFont, Segoe UI, Roboto, sans-serif" text-anchor="start">bledxs&apos;s GitHub Stats</text>
  <g>
    <circle cx="450" cy="50" r="28" fill="#58a6ff" opacity="0.2" stroke="#58a6ff" stroke-width="2"/>
      <text x="450" y="57" font-size="24" font-weight="bold" fill="#58a6ff" font-family="-apple-system, BlinkMacSystemFont, Segoe UI, Roboto, sans-serif" text-anchor="middle">A</text>
  </g>
  <line x1="20" y1="60" x2="480" y2="60" stroke="#30363d" stroke-width="1" opacity="0.3"/>
  <g>  <g transform="translate(25, 65) scale(0.6666666666666666)">
    <circle cx="12" cy="12" r="3" stroke="#1f6feb" />
  <line x1="3" x2="9" y1="12" y2="12" stroke="#1f6feb" />
  <line x1="15" x2="21" y1="12" y2="12" stroke="#1f6feb" />
  </g>  <text x="51" y="78" font-size="14" font-weight="normal" fill="#c9d1d9" font-family="-apple-system, BlinkMacSystemFont, Segoe UI, Roboto, sans-serif" text-anchor="start">Total Commits</text>  <text x="480" y="78" font-size="14" font-weight="bold" fill="#58a6ff" font-family="-apple-system, BlinkMacSystemFont, Segoe UI, Roboto, sans-serif" text-anchor="end">301</text></g>
  <g>  <g transform="translate(25, 95) scale(0.6666666666666666)">
    <circle cx="18" cy="18" r="3" stroke="#1f6feb" />
  <circle cx="6" cy="6" r="3" stroke="#1f6feb" />
  <path d="M13 6h3a2 2 0 0 1 2 2v7" stroke="#1f6feb" />
  <line x1="6" x2="6" y1="9" y2="21" stroke="#1f6feb" />
  </g>  <text x="51" y="108" font-size="14" font-weight="normal" fill="#c9d1d9" font-family="-apple-system, BlinkMacSystemFont, Segoe UI, Roboto, sans-serif" text-anchor="start">Pull Requests</text>  <text x="480" y="108" font-size="14" font-weight="bold" fill="#58a6ff" font-family="-apple-system, BlinkMacSystemFont, Segoe UI, Roboto, sans-serif" text-anchor="end">17</text></g>
  <g>  <g transform="translate(25, 125) scale(0.6666666666666666)">
    <circle cx="12" cy="12" r="10" stroke="#1f6feb" />
  <circle cx="12" cy="12" r="1" stroke="#1f6feb" />
  </g>  <text x="51" y="138" font-size="14" font-weight="normal" fill="#c9d1d9" font-family="-apple-system, BlinkMacSystemFont, Segoe UI, Roboto, sans-serif" text-anchor="start">Total Issues</text>  <text x="480" y="138" font-size="14" font-weight="bold" fill="#58a6ff" font-family="-apple-system, BlinkMacSystemFont, Segoe UI, Roboto, sans-serif" text-anchor="end">2</text></g>
  <g>  <g transform="translate(25, 155) scale(0.6666666666666666)">
    <path d="M11.525 2.295a.53.53 0 0 1 .95 0l2.31 4.679a2.123 2.123 0 0 0 1.595 1.16l5.166.756a.53.53 0 0 1 .294.904l-3.736 3.638a2.123 2.123 0 0 0-.611 1.878l.882 5.14a.53.53 0 0 1-.771.56l-4.618-2.428a2.122 2.122 0 0 0-1.973 0L6.396 21.01a.53.53 0 0 1-.77-.56l.881-5.139a2.122 2.122 0 0 0-.611-1.879L2.16 9.795a.53.53 0 0 1 .294-.906l5.165-.755a2.122 2.122 0 0 0 1.597-1.16z" stroke="#1f6feb" />
  </g>  <text x="51" y="168" font-size="14" font-weight="normal" fill="#c9d1d9" font-family="-apple-system, BlinkMacSystemFont, Segoe UI, Roboto, sans-serif" text-anchor="start">Total Stars</text>  <text x="480" y="168" font-size="14" font-weight="bold" fill="#58a6ff" font-family="-apple-system, BlinkMacSystemFont, Segoe UI, Roboto, sans-serif" text-anchor="end">7</text></g>
  <g>  <g transform="translate(25, 185) scale(0.6666666666666666)">
    <line x1="6" x2="6" y1="3" y2="15" stroke="#1f6feb" />
  <circle cx="18" cy="6" r="3" stroke="#1f6feb" />
  <circle cx="6" cy="18" r="3" stroke="#1f6feb" />
  <path d="M18 9a9 9 0 0 1-9 9" stroke="#1f6feb" />
  </g>  <text x="51" y="198" font-size="14" font-weight="normal" fill="#c9d1d9" font-family="-apple-system, BlinkMacSystemFont, Segoe UI, Roboto, sans-serif" text-anchor="start">Contributed To</text>  <text x="480" y="198" font-size="14" font-weight="bold" fill="#58a6ff" font-family="-apple-system, BlinkMacSystemFont, Segoe UI, Roboto, sans-serif" text-anchor="end">1</text></g>

</svg>